<?xml version="1.0" encoding="UTF-8"?>
<svg xmlns="http://www.w3.org/2000/svg" xmlns:xlink="http://www.w3.org/1999/xlink" viewBox="0 0 128 128" width="128px" height="128px">
<g id="surface14964412">
<path style=" stroke:none;fill-rule:nonzero;fill:rgb(100%,100%,100%);fill-opacity:1;" d="M 127.304688 28.160156 L 125.128906 28.160156 C 122.441406 28.160156 119.90625 29.414062 118.269531 31.550781 L 95.996094 60.675781 L 73.726562 31.550781 C 72.09375 29.414062 69.558594 28.160156 66.871094 28.160156 L 64.695312 28.160156 L 92.78125 64.886719 L 64.09375 102.398438 L 66.269531 102.398438 C 68.957031 102.398438 71.492188 101.144531 73.125 99.011719 L 96 69.097656 L 118.875 99.011719 C 120.507812 101.144531 123.042969 102.398438 125.730469 102.398438 L 127.90625 102.398438 L 99.21875 64.886719 Z M 54.5 87.660156 C 47.960938 97.59375 35.089844 102.6875 22.785156 98.195312 C 11.957031 94.246094 5.121094 83.484375 5.121094 71.960938 L 5.121094 69.121094 L 64 69.121094 L 64 58.535156 C 64 41.882812 51.664062 27.304688 35.085938 25.746094 C 16.058594 23.957031 0 38.9375 0 57.601562 L 0 71.867188 C 0 85.617188 8.230469 98.398438 21.167969 103.054688 C 38.074219 109.136719 55.851562 100.058594 61.863281 84.480469 L 60.230469 84.480469 C 57.898438 84.480469 55.78125 85.710938 54.5 87.660156 Z M 5.121094 57.601562 C 5.121094 42.777344 17.175781 30.71875 32 30.71875 C 46.824219 30.71875 58.878906 42.777344 58.878906 57.601562 L 58.878906 64 L 5.121094 64 Z M 5.121094 57.601562 "/>
</g>
</svg>
